<svg width="100" height="100" viewBox="0 0 100 100" fill="none" xmlns="http://www.w3.org/2000/svg">
<path d="M0 20C0 8.9543 8.95431 0 20 0H80C91.0457 0 100 8.95431 100 20V80C100 91.0457 91.0457 100 80 100H20C8.9543 100 0 91.0457 0 80V20Z" fill="url(#paint0_linear_29_152)"/>
<path d="M49.1429 68.1335C46.0686 70.7112 41.7102 72 36.0676 72C30.425 72 26.5141 70.6916 24.3349 68.0749C22.7783 66.2784 22 63.7984 22 60.6349C22 59.2289 22.1557 57.6862 22.467 56.0068L27.1951 29H37.702L32.9739 55.7725C32.8182 56.7489 32.7404 57.7643 32.7404 58.8188C32.7404 61.5527 34.3748 62.9196 37.6436 62.9196C39.5893 62.9196 41.1459 62.4119 42.3134 61.3965C43.4808 60.381 44.298 58.5064 44.765 55.7725L47.4931 42H58L55.2719 56.0068C54.299 61.4746 52.256 65.5168 49.1429 68.1335Z" fill="white"/>
<path d="M49 33.3077C49 31.1197 49.5108 29.5299 50.5323 28.5385C51.5904 27.5128 53.2139 27 55.403 27C58.4677 27 60 28.265 60 30.7949C60 32.9487 59.471 34.5214 58.4129 35.5128C57.3914 36.5043 55.7678 37 53.5423 37C50.5141 37 49 35.7692 49 33.3077Z" fill="white"/>
<path d="M61 68.9296C61 66.5258 61.524 64.7793 62.5719 63.6901C63.6573 62.5634 65.3228 62 67.5684 62C70.7123 62 72.2842 63.3897 72.2842 66.169C72.2842 68.5352 71.7415 70.2629 70.6561 71.3521C69.6082 72.4413 67.9427 72.9859 65.6596 72.9859C62.5532 72.9859 61 71.6338 61 68.9296Z" fill="white"/>
<path d="M68.3036 27H78L72.6964 57H63L68.3036 27Z" fill="white"/>
<defs>
<linearGradient id="paint0_linear_29_152" x1="100" y1="0" x2="0" y2="100" gradientUnits="userSpaceOnUse">
<stop stop-color="#FFDF94"/>
<stop offset="1" stop-color="#FF754F"/>
</linearGradient>
</defs>
</svg>
